<svg width="37" height="39" viewBox="0 0 37 39" fill="none" xmlns="http://www.w3.org/2000/svg">
<g id="Angular">
<path d="M18.5393 0.269714L36.4703 6.65913L33.7522 30.3912L18.5393 38.809L3.32644 30.3912L0.608398 6.65913L18.5393 0.269714ZM18.5393 4.52932L7.32235 29.6813H11.5008L13.7523 24.0424H23.2858L25.5373 29.6813H29.6954L18.5393 4.52932ZM21.8253 20.5536H15.2736L18.5393 12.7037L21.8253 20.5536Z" fill="#56575A"/>
<path d="M18.5393 0.269714L36.4703 6.65913L33.7522 30.3912L18.5393 38.809L3.32644 30.3912L0.608398 6.65913L18.5393 0.269714ZM18.5393 4.52932L7.32235 29.6813H11.5008L13.7523 24.0424H23.2858L25.5373 29.6813H29.6954L18.5393 4.52932ZM21.8253 20.5536H15.2736L18.5393 12.7037L21.8253 20.5536Z" fill="#C7C8C9"/>
</g>
</svg>
