<svg width="49" height="39" viewBox="0 0 49 39" fill="none" xmlns="http://www.w3.org/2000/svg">
<g id="Vector">
<path d="M10.7384 0.269714C7.98925 0.269714 5.95737 2.68649 6.04944 5.30537C6.13508 7.8232 6.02161 11.0828 5.20372 13.7426C4.38369 16.4088 2.99841 18.0988 0.733154 18.3159V20.7628C2.99841 20.98 4.38369 22.67 5.20372 25.3362C6.02161 27.9938 6.13508 31.2556 6.0473 33.7712C5.95738 36.3923 7.98925 38.809 10.7405 38.809H38.9042C41.6534 38.809 43.6874 36.3923 43.5975 33.7712C43.5097 31.2556 43.6231 27.9938 44.4389 25.3362C45.2611 22.67 46.6442 20.98 48.9073 20.7628V18.3159C46.6421 18.0988 45.2611 16.4088 44.4389 13.7426C43.6231 11.085 43.5097 7.8232 43.5975 5.30537C43.6874 2.68649 41.6534 0.269714 38.9042 0.269714H10.7384ZM33.3931 23.9923C33.3931 27.6003 30.7146 29.7892 26.2676 29.7892H18.6968C18.5895 29.7894 18.4832 29.7685 18.3839 29.7274C18.2847 29.6864 18.1945 29.6261 18.1186 29.55C18.0426 29.4739 17.9823 29.3835 17.9412 29.2839C17.9 29.1844 17.8789 29.0777 17.8789 28.9699V10.1088C17.8789 10.001 17.9 9.89435 17.9412 9.79482C17.9823 9.69528 18.0426 9.60488 18.1186 9.52878C18.1945 9.45268 18.2847 9.39239 18.3839 9.35134C18.4832 9.3103 18.5895 9.28932 18.6968 9.2896H26.2226C29.931 9.2896 32.3654 11.3064 32.3654 14.4048C32.3654 16.5765 30.7275 18.5245 28.6421 18.8642V18.9782C31.4811 19.29 33.3931 21.266 33.3931 23.9923ZM25.4411 11.887H21.1247V18.0106H24.7603C27.5715 18.0106 29.1195 16.8753 29.1195 14.8434C29.1195 12.9406 27.7878 11.8891 25.4411 11.8891V11.887ZM21.1247 20.4403V27.1896H25.5996C28.5264 27.1896 30.0744 26.0092 30.0744 23.7924C30.0744 21.5777 28.4836 20.4403 25.4112 20.4403H21.1247Z" fill="#56575A"/>
<path d="M10.7384 0.269714C7.98925 0.269714 5.95737 2.68649 6.04944 5.30537C6.13508 7.8232 6.02161 11.0828 5.20372 13.7426C4.38369 16.4088 2.99841 18.0988 0.733154 18.3159V20.7628C2.99841 20.98 4.38369 22.67 5.20372 25.3362C6.02161 27.9938 6.13508 31.2556 6.0473 33.7712C5.95738 36.3923 7.98925 38.809 10.7405 38.809H38.9042C41.6534 38.809 43.6874 36.3923 43.5975 33.7712C43.5097 31.2556 43.6231 27.9938 44.4389 25.3362C45.2611 22.67 46.6442 20.98 48.9073 20.7628V18.3159C46.6421 18.0988 45.2611 16.4088 44.4389 13.7426C43.6231 11.085 43.5097 7.8232 43.5975 5.30537C43.6874 2.68649 41.6534 0.269714 38.9042 0.269714H10.7384ZM33.3931 23.9923C33.3931 27.6003 30.7146 29.7892 26.2676 29.7892H18.6968C18.5895 29.7894 18.4832 29.7685 18.3839 29.7274C18.2847 29.6864 18.1945 29.6261 18.1186 29.55C18.0426 29.4739 17.9823 29.3835 17.9412 29.2839C17.9 29.1844 17.8789 29.0777 17.8789 28.9699V10.1088C17.8789 10.001 17.9 9.89435 17.9412 9.79482C17.9823 9.69528 18.0426 9.60488 18.1186 9.52878C18.1945 9.45268 18.2847 9.39239 18.3839 9.35134C18.4832 9.3103 18.5895 9.28932 18.6968 9.2896H26.2226C29.931 9.2896 32.3654 11.3064 32.3654 14.4048C32.3654 16.5765 30.7275 18.5245 28.6421 18.8642V18.9782C31.4811 19.29 33.3931 21.266 33.3931 23.9923ZM25.4411 11.887H21.1247V18.0106H24.7603C27.5715 18.0106 29.1195 16.8753 29.1195 14.8434C29.1195 12.9406 27.7878 11.8891 25.4411 11.8891V11.887ZM21.1247 20.4403V27.1896H25.5996C28.5264 27.1896 30.0744 26.0092 30.0744 23.7924C30.0744 21.5777 28.4836 20.4403 25.4112 20.4403H21.1247Z" fill="#C7C8C9"/>
</g>
</svg>
