<svg width="53" height="39" viewBox="0 0 53 39" fill="none" xmlns="http://www.w3.org/2000/svg">
<g id="SASS">
<path d="M45.0164 22.4245C43.2236 22.4338 41.6654 22.8656 40.3608 23.5039C39.8819 22.5558 39.4032 21.7111 39.3189 21.0915C39.2249 20.3689 39.1123 19.9276 39.2249 19.0641C39.3376 18.2005 39.8445 16.9708 39.835 16.877C39.8257 16.7832 39.7223 16.3419 38.6898 16.3327C37.6574 16.3232 36.7656 16.5297 36.6623 16.8019C36.5591 17.074 36.362 17.6936 36.2306 18.3318C36.0522 19.2706 34.1656 22.6214 33.0863 24.3767C32.7388 23.6917 32.4385 23.0908 32.3727 22.6122C32.2789 21.8895 32.1662 21.4482 32.2789 20.5847C32.3916 19.7211 32.8985 18.4916 32.889 18.3976C32.8796 18.3038 32.7763 17.8625 31.7438 17.8533C30.7112 17.8438 29.8194 18.0503 29.7164 18.3225C29.6131 18.5948 29.5004 19.233 29.2846 19.8526C29.0686 20.4722 26.5624 26.0666 25.9054 27.5119C25.6399 28.0969 25.3613 28.676 25.07 29.2485C25.07 29.2485 25.0605 29.2767 25.0324 29.3236C24.9408 29.5032 24.847 29.6815 24.7509 29.8587V29.8679C24.61 30.1216 24.4599 30.3561 24.3848 30.3561C24.3284 30.3561 24.2252 29.6803 24.4035 28.7604C24.7789 26.8175 25.6707 23.795 25.6614 23.6917C25.6614 23.6353 25.8303 23.1098 25.0795 22.8374C24.3471 22.5652 24.0844 23.0158 24.0186 23.0158C23.953 23.0158 23.9059 23.1754 23.9059 23.1754C23.9059 23.1754 24.7228 19.7775 22.3478 19.7775C20.8649 19.7775 18.8185 21.4013 17.8048 22.8656C16.6524 23.4927 15.5009 24.1216 14.3505 24.7524C13.7969 25.0621 13.2242 25.3719 12.6892 25.6628C12.6515 25.6254 12.6141 25.5783 12.5764 25.5408C9.70413 22.4714 4.39147 20.3031 4.61673 16.1825C4.70127 14.6806 5.2174 10.7382 14.8199 5.95113C22.7233 2.05561 29.0124 3.13497 30.1012 5.5286C31.6593 8.94543 26.7315 15.2907 18.5651 16.2105C15.4488 16.5579 13.8154 15.3564 13.4026 14.9059C12.9708 14.4364 12.905 14.4083 12.7453 14.5023C12.4826 14.6432 12.6515 15.0655 12.7453 15.3095C12.9895 15.9476 13.9938 17.074 15.6927 17.628C17.1946 18.116 20.846 18.3883 25.2671 16.6799C30.2138 14.765 34.0811 9.44284 32.9454 4.98429C31.8095 0.459921 24.3002 -1.0325 17.1946 1.49238C12.9708 2.99446 8.39005 5.35971 5.09541 8.43856C1.18118 12.0992 0.56158 15.2813 0.815014 16.6143C1.72569 21.345 8.24935 24.4238 10.8588 26.7047C10.7273 26.7798 10.6051 26.8456 10.5021 26.902C9.19726 27.5496 4.22238 30.1495 2.9834 32.8999C1.57552 36.0162 3.20885 38.2504 4.28821 38.5505C7.63921 39.4799 11.084 37.8091 12.9331 35.0493C14.7823 32.2897 14.557 28.704 13.7029 27.0614C13.6934 27.0427 13.6842 27.0238 13.6653 27.0051C14.0032 26.808 14.3505 26.6015 14.6885 26.4044C15.3096 26.0372 15.9387 25.6835 16.5752 25.3436C16.256 26.2166 16.0213 27.2585 15.9087 28.7604C15.7678 30.5252 16.4905 32.8153 17.4386 33.7163C17.8611 34.1109 18.3585 34.1202 18.6778 34.1202C19.7853 34.1202 20.2829 33.2002 20.8367 32.1114C21.5125 30.7786 22.1226 29.2298 22.1226 29.2298C22.1226 29.2298 21.3623 33.4162 23.4274 33.4162C24.1782 33.4162 24.9386 32.4399 25.2765 31.9425V31.9518C25.2765 31.9518 25.2953 31.9236 25.3329 31.858C25.408 31.736 25.4549 31.6607 25.4549 31.6607V31.6422C25.7552 31.1164 26.4312 29.9243 27.4354 27.9437C28.7308 25.3907 29.9793 22.1993 29.9793 22.1993C29.9793 22.1993 30.092 22.9783 30.4767 24.2737C30.7021 25.034 31.1711 25.8694 31.5468 26.6766C31.2464 27.0991 31.0586 27.3336 31.0586 27.3336L31.0681 27.3431C30.8239 27.6621 30.5612 28.0093 30.2701 28.3475C29.2469 29.5676 28.0269 30.9664 27.8578 31.3698C27.6605 31.8485 27.7076 32.1959 28.0832 32.4776C28.3554 32.6841 28.8433 32.7121 29.3409 32.6841C30.2609 32.6183 30.9084 32.393 31.2275 32.2523C31.7251 32.074 32.3071 31.8016 32.8514 31.398C33.8559 30.6564 34.4658 29.5958 34.4096 28.1974C34.3814 27.4276 34.128 26.6578 33.8182 25.935C33.9122 25.8037 33.9966 25.6723 34.0906 25.5408C35.6768 23.2223 36.9065 20.6785 36.9065 20.6785C36.9065 20.6785 37.0192 21.4575 37.4039 22.7531C37.5917 23.4101 37.9766 24.1235 38.3144 24.818C36.822 26.029 35.902 27.4369 35.5735 28.3568C34.9823 30.0652 35.4421 30.8348 36.3151 31.0131C36.7092 31.0977 37.2725 30.9099 37.6855 30.7315C38.2111 30.5626 38.8307 30.2717 39.4221 29.8398C40.4266 29.0984 41.3932 28.0657 41.3369 26.6673C41.3087 26.029 41.1398 25.3999 40.9051 24.7898C42.1723 24.2644 43.8056 23.9733 45.8892 24.2173C50.3574 24.7429 51.2397 27.5307 51.0706 28.7042C50.9018 29.8774 49.9631 30.5157 49.6535 30.7128C49.3435 30.9101 49.2404 30.9757 49.2686 31.1164C49.3061 31.3229 49.4562 31.3137 49.7191 31.276C50.0853 31.2104 52.0659 30.3279 52.1502 28.169C52.2911 25.4094 49.6628 22.3964 45.0164 22.4245ZM10.549 34.0451C9.06581 35.6595 7.0009 36.2696 6.10915 35.7535C5.15178 35.1995 5.5272 32.8153 7.34814 31.1071C8.45568 30.0652 9.88248 29.0982 10.8306 28.507C11.0464 28.3755 11.3656 28.1879 11.7505 27.9532C11.8161 27.9155 11.8538 27.8968 11.8538 27.8968L12.079 27.7559C12.7453 30.1964 12.1072 32.3461 10.549 34.0451ZM21.3436 26.7047C20.8272 27.9626 19.7479 31.1822 19.0908 31.0039C18.5276 30.8537 18.1802 28.4132 18.9781 26.0008C19.3817 24.7898 20.2358 23.3443 20.7334 22.7812C21.5406 21.88 22.4324 21.5795 22.6482 21.9459C22.9205 22.4245 21.6626 25.9163 21.3436 26.7047ZM30.2514 30.9662C30.0354 31.0789 29.8291 31.154 29.7351 31.0977C29.6695 31.06 29.8291 30.9099 29.8291 30.9099C29.8291 30.9099 30.9461 29.7085 31.3871 29.164C31.6408 28.8449 31.9409 28.4695 32.2602 28.047V28.169C32.2602 29.6052 30.8708 30.5721 30.2512 30.9662H30.2514ZM37.1223 29.3987C36.9627 29.286 36.9909 28.9106 37.5259 27.7372C37.7324 27.2772 38.2204 26.5077 39.056 25.7661C39.1498 26.0664 39.2156 26.3575 39.2061 26.6297C39.1967 28.4413 37.9015 29.1171 37.1223 29.3987Z" fill="#56575A"/>
<path d="M45.0164 22.4245C43.2236 22.4338 41.6654 22.8656 40.3608 23.5039C39.8819 22.5558 39.4032 21.7111 39.3189 21.0915C39.2249 20.3689 39.1123 19.9276 39.2249 19.0641C39.3376 18.2005 39.8445 16.9708 39.835 16.877C39.8257 16.7832 39.7223 16.3419 38.6898 16.3327C37.6574 16.3232 36.7656 16.5297 36.6623 16.8019C36.5591 17.074 36.362 17.6936 36.2306 18.3318C36.0522 19.2706 34.1656 22.6214 33.0863 24.3767C32.7388 23.6917 32.4385 23.0908 32.3727 22.6122C32.2789 21.8895 32.1662 21.4482 32.2789 20.5847C32.3916 19.7211 32.8985 18.4916 32.889 18.3976C32.8796 18.3038 32.7763 17.8625 31.7438 17.8533C30.7112 17.8438 29.8194 18.0503 29.7164 18.3225C29.6131 18.5948 29.5004 19.233 29.2846 19.8526C29.0686 20.4722 26.5624 26.0666 25.9054 27.5119C25.6399 28.0969 25.3613 28.676 25.07 29.2485C25.07 29.2485 25.0605 29.2767 25.0324 29.3236C24.9408 29.5032 24.847 29.6815 24.7509 29.8587V29.8679C24.61 30.1216 24.4599 30.3561 24.3848 30.3561C24.3284 30.3561 24.2252 29.6803 24.4035 28.7604C24.7789 26.8175 25.6707 23.795 25.6614 23.6917C25.6614 23.6353 25.8303 23.1098 25.0795 22.8374C24.3471 22.5652 24.0844 23.0158 24.0186 23.0158C23.953 23.0158 23.9059 23.1754 23.9059 23.1754C23.9059 23.1754 24.7228 19.7775 22.3478 19.7775C20.8649 19.7775 18.8185 21.4013 17.8048 22.8656C16.6524 23.4927 15.5009 24.1216 14.3505 24.7524C13.7969 25.0621 13.2242 25.3719 12.6892 25.6628C12.6515 25.6254 12.6141 25.5783 12.5764 25.5408C9.70413 22.4714 4.39147 20.3031 4.61673 16.1825C4.70127 14.6806 5.2174 10.7382 14.8199 5.95113C22.7233 2.05561 29.0124 3.13497 30.1012 5.5286C31.6593 8.94543 26.7315 15.2907 18.5651 16.2105C15.4488 16.5579 13.8154 15.3564 13.4026 14.9059C12.9708 14.4364 12.905 14.4083 12.7453 14.5023C12.4826 14.6432 12.6515 15.0655 12.7453 15.3095C12.9895 15.9476 13.9938 17.074 15.6927 17.628C17.1946 18.116 20.846 18.3883 25.2671 16.6799C30.2138 14.765 34.0811 9.44284 32.9454 4.98429C31.8095 0.459921 24.3002 -1.0325 17.1946 1.49238C12.9708 2.99446 8.39005 5.35971 5.09541 8.43856C1.18118 12.0992 0.56158 15.2813 0.815014 16.6143C1.72569 21.345 8.24935 24.4238 10.8588 26.7047C10.7273 26.7798 10.6051 26.8456 10.5021 26.902C9.19726 27.5496 4.22238 30.1495 2.9834 32.8999C1.57552 36.0162 3.20885 38.2504 4.28821 38.5505C7.63921 39.4799 11.084 37.8091 12.9331 35.0493C14.7823 32.2897 14.557 28.704 13.7029 27.0614C13.6934 27.0427 13.6842 27.0238 13.6653 27.0051C14.0032 26.808 14.3505 26.6015 14.6885 26.4044C15.3096 26.0372 15.9387 25.6835 16.5752 25.3436C16.256 26.2166 16.0213 27.2585 15.9087 28.7604C15.7678 30.5252 16.4905 32.8153 17.4386 33.7163C17.8611 34.1109 18.3585 34.1202 18.6778 34.1202C19.7853 34.1202 20.2829 33.2002 20.8367 32.1114C21.5125 30.7786 22.1226 29.2298 22.1226 29.2298C22.1226 29.2298 21.3623 33.4162 23.4274 33.4162C24.1782 33.4162 24.9386 32.4399 25.2765 31.9425V31.9518C25.2765 31.9518 25.2953 31.9236 25.3329 31.858C25.408 31.736 25.4549 31.6607 25.4549 31.6607V31.6422C25.7552 31.1164 26.4312 29.9243 27.4354 27.9437C28.7308 25.3907 29.9793 22.1993 29.9793 22.1993C29.9793 22.1993 30.092 22.9783 30.4767 24.2737C30.7021 25.034 31.1711 25.8694 31.5468 26.6766C31.2464 27.0991 31.0586 27.3336 31.0586 27.3336L31.0681 27.3431C30.8239 27.6621 30.5612 28.0093 30.2701 28.3475C29.2469 29.5676 28.0269 30.9664 27.8578 31.3698C27.6605 31.8485 27.7076 32.1959 28.0832 32.4776C28.3554 32.6841 28.8433 32.7121 29.3409 32.6841C30.2609 32.6183 30.9084 32.393 31.2275 32.2523C31.7251 32.074 32.3071 31.8016 32.8514 31.398C33.8559 30.6564 34.4658 29.5958 34.4096 28.1974C34.3814 27.4276 34.128 26.6578 33.8182 25.935C33.9122 25.8037 33.9966 25.6723 34.0906 25.5408C35.6768 23.2223 36.9065 20.6785 36.9065 20.6785C36.9065 20.6785 37.0192 21.4575 37.4039 22.7531C37.5917 23.4101 37.9766 24.1235 38.3144 24.818C36.822 26.029 35.902 27.4369 35.5735 28.3568C34.9823 30.0652 35.4421 30.8348 36.3151 31.0131C36.7092 31.0977 37.2725 30.9099 37.6855 30.7315C38.2111 30.5626 38.8307 30.2717 39.4221 29.8398C40.4266 29.0984 41.3932 28.0657 41.3369 26.6673C41.3087 26.029 41.1398 25.3999 40.9051 24.7898C42.1723 24.2644 43.8056 23.9733 45.8892 24.2173C50.3574 24.7429 51.2397 27.5307 51.0706 28.7042C50.9018 29.8774 49.9631 30.5157 49.6535 30.7128C49.3435 30.9101 49.2404 30.9757 49.2686 31.1164C49.3061 31.3229 49.4562 31.3137 49.7191 31.276C50.0853 31.2104 52.0659 30.3279 52.1502 28.169C52.2911 25.4094 49.6628 22.3964 45.0164 22.4245ZM10.549 34.0451C9.06581 35.6595 7.0009 36.2696 6.10915 35.7535C5.15178 35.1995 5.5272 32.8153 7.34814 31.1071C8.45568 30.0652 9.88248 29.0982 10.8306 28.507C11.0464 28.3755 11.3656 28.1879 11.7505 27.9532C11.8161 27.9155 11.8538 27.8968 11.8538 27.8968L12.079 27.7559C12.7453 30.1964 12.1072 32.3461 10.549 34.0451ZM21.3436 26.7047C20.8272 27.9626 19.7479 31.1822 19.0908 31.0039C18.5276 30.8537 18.1802 28.4132 18.9781 26.0008C19.3817 24.7898 20.2358 23.3443 20.7334 22.7812C21.5406 21.88 22.4324 21.5795 22.6482 21.9459C22.9205 22.4245 21.6626 25.9163 21.3436 26.7047ZM30.2514 30.9662C30.0354 31.0789 29.8291 31.154 29.7351 31.0977C29.6695 31.06 29.8291 30.9099 29.8291 30.9099C29.8291 30.9099 30.9461 29.7085 31.3871 29.164C31.6408 28.8449 31.9409 28.4695 32.2602 28.047V28.169C32.2602 29.6052 30.8708 30.5721 30.2512 30.9662H30.2514ZM37.1223 29.3987C36.9627 29.286 36.9909 28.9106 37.5259 27.7372C37.7324 27.2772 38.2204 26.5077 39.056 25.7661C39.1498 26.0664 39.2156 26.3575 39.2061 26.6297C39.1967 28.4413 37.9015 29.1171 37.1223 29.3987Z" fill="#C7C8C9"/>
</g>
</svg>
