<svg width="40" height="39" viewBox="0 0 40 39" fill="none" xmlns="http://www.w3.org/2000/svg">
<g id="TypeScript">
<path d="M0.910156 19.5394V38.809H39.4495V0.269714H0.910156V19.5394ZM31.9656 18.0026C32.8895 18.2202 33.7292 18.7043 34.3804 19.3949C34.732 19.7706 35.2583 20.4607 35.3029 20.6305C35.3149 20.6811 33.6409 21.8036 32.6244 22.431C32.5871 22.4563 32.4365 22.2998 32.2727 22.0541C31.7777 21.3327 31.2563 21.0195 30.4602 20.9629C29.2932 20.887 28.5404 21.4965 28.5465 22.5189C28.5403 22.7691 28.5962 23.017 28.7091 23.2404C28.9668 23.7739 29.4497 24.093 30.9419 24.7398C33.7023 25.9249 34.8814 26.7089 35.6148 27.8193C36.4362 29.061 36.618 31.0434 36.0664 32.5235C35.4522 34.1229 33.9335 35.214 31.8006 35.5717C31.1418 35.691 29.5738 35.6717 28.8644 35.5404C27.3156 35.2646 25.8475 34.4987 24.9442 33.4954C24.5865 33.1064 23.8965 32.0839 23.941 32.0153C23.9603 31.99 24.1169 31.89 24.2927 31.7889L25.7235 30.9603L26.8339 30.3147L27.0663 30.6592C27.3927 31.1542 28.1009 31.8322 28.5284 32.0574C29.758 32.7102 31.4453 32.6163 32.28 31.8696C32.6184 31.5877 32.8075 31.1542 32.7822 30.7158C32.7822 30.2702 32.7256 30.0702 32.4931 29.7366C32.192 29.3103 31.5838 28.9466 29.846 28.1939C27.8576 27.334 26.9977 26.8077 26.2209 25.961C25.7318 25.4037 25.3702 24.7465 25.161 24.0352C25.0165 23.4897 24.9792 22.1215 25.0924 21.5759C25.5007 19.6502 26.9555 18.3145 29.0439 17.9195C29.7219 17.7882 31.302 17.8376 31.9668 18.0014L31.9656 18.0026ZM22.9209 19.6153L22.933 21.1893H17.9144V35.4477H14.364V21.1893H9.35268V19.6466C9.35268 18.7867 9.37195 18.0725 9.39603 18.0532C9.4153 18.0279 12.4635 18.0159 16.1645 18.0219L22.9017 18.0412L22.9209 19.6153Z" fill="#56575A"/>
<path d="M0.910156 19.5394V38.809H39.4495V0.269714H0.910156V19.5394ZM31.9656 18.0026C32.8895 18.2202 33.7292 18.7043 34.3804 19.3949C34.732 19.7706 35.2583 20.4607 35.3029 20.6305C35.3149 20.6811 33.6409 21.8036 32.6244 22.431C32.5871 22.4563 32.4365 22.2998 32.2727 22.0541C31.7777 21.3327 31.2563 21.0195 30.4602 20.9629C29.2932 20.887 28.5404 21.4965 28.5465 22.5189C28.5403 22.7691 28.5962 23.017 28.7091 23.2404C28.9668 23.7739 29.4497 24.093 30.9419 24.7398C33.7023 25.9249 34.8814 26.7089 35.6148 27.8193C36.4362 29.061 36.618 31.0434 36.0664 32.5235C35.4522 34.1229 33.9335 35.214 31.8006 35.5717C31.1418 35.691 29.5738 35.6717 28.8644 35.5404C27.3156 35.2646 25.8475 34.4987 24.9442 33.4954C24.5865 33.1064 23.8965 32.0839 23.941 32.0153C23.9603 31.99 24.1169 31.89 24.2927 31.7889L25.7235 30.9603L26.8339 30.3147L27.0663 30.6592C27.3927 31.1542 28.1009 31.8322 28.5284 32.0574C29.758 32.7102 31.4453 32.6163 32.28 31.8696C32.6184 31.5877 32.8075 31.1542 32.7822 30.7158C32.7822 30.2702 32.7256 30.0702 32.4931 29.7366C32.192 29.3103 31.5838 28.9466 29.846 28.1939C27.8576 27.334 26.9977 26.8077 26.2209 25.961C25.7318 25.4037 25.3702 24.7465 25.161 24.0352C25.0165 23.4897 24.9792 22.1215 25.0924 21.5759C25.5007 19.6502 26.9555 18.3145 29.0439 17.9195C29.7219 17.7882 31.302 17.8376 31.9668 18.0014L31.9656 18.0026ZM22.9209 19.6153L22.933 21.1893H17.9144V35.4477H14.364V21.1893H9.35268V19.6466C9.35268 18.7867 9.37195 18.0725 9.39603 18.0532C9.4153 18.0279 12.4635 18.0159 16.1645 18.0219L22.9017 18.0412L22.9209 19.6153Z" fill="#C7C8C9"/>
</g>
</svg>
